<svg id="bc52c4b0-5495-47d6-8fbf-e718e11a33f1" data-name="Layer 1" xmlns="http://www.w3.org/2000/svg" width="803" height="617" viewBox="0 0 803 617">
    <title>mobile login</title>
    <path d="M654.5,254.5v-76h38v-37h-186v186h159V309.31439A25.81441,25.81441,0,0,1,691.31445,283.5H692.5v-29Z" transform="translate(-198.5 -141.5)" fill="#f0f0f0" />
    <rect x="538" y="480" width="124" height="26" fill="#6c63ff" />
    <rect x="507" y="352" width="182" height="24" fill="#f0f0f0" />
    <rect y="615" width="778" height="2" fill="#3f3d56" />
    <path d="M918.68555,758.5H691.31445A26.84532,26.84532,0,0,1,664.5,731.68555V309.31445A26.845,26.845,0,0,1,691.31445,282.5h227.3711A26.845,26.845,0,0,1,945.5,309.31445v422.3711A26.84532,26.84532,0,0,1,918.68555,758.5Zm-227.3711-474A24.84271,24.84271,0,0,0,666.5,309.31445v422.3711A24.84271,24.84271,0,0,0,691.31445,756.5h227.3711A24.84271,24.84271,0,0,0,943.5,731.68555V309.31445A24.84271,24.84271,0,0,0,918.68555,284.5Z" transform="translate(-198.5 -141.5)" fill="#3f3d56" />
    <path d="M778,302.5a6,6,0,1,1,6-6A6.00657,6.00657,0,0,1,778,302.5Zm0-10a4,4,0,1,0,4,4A4.00427,4.00427,0,0,0,778,292.5Z" transform="translate(-198.5 -141.5)" fill="#3f3d56" />
    <rect x="594.5" y="154" width="44" height="2" fill="#3f3d56" />
    <path d="M927.5,311.5v80a80.00357,80.00357,0,0,1-80-80Z" transform="translate(-198.5 -141.5)" fill="#6c63ff" />
    <path d="M928.5,731.5h-247v-421h247Zm-245-2h243v-417h-243Z" transform="translate(-198.5 -141.5)" fill="#3f3d56" />
    <circle cx="671" cy="218" r="27" opacity="0.1" />
    <circle cx="667" cy="221" r="27" fill="#6c63ff" />
    <rect x="494" y="186" width="38" height="14" fill="#3f3d56" />
    <rect x="515" y="319" width="38" height="14" fill="#3f3d56" />
    <path d="M897.5,512.5h-184v-26h184Zm-182-2h180v-22h-180Z" transform="translate(-198.5 -141.5)" fill="#3f3d56" />
    <rect x="507" y="428" width="182" height="24" fill="#f0f0f0" />
    <rect x="515" y="395" width="38" height="14" fill="#3f3d56" />
    <path d="M897.5,588.5h-184v-26h184Zm-182-2h180v-22h-180Z" transform="translate(-198.5 -141.5)" fill="#3f3d56" />
    <path d="M868.5,641.5h-126v-28h126Zm-124-2h122v-24h-122Z" transform="translate(-198.5 -141.5)" fill="#3f3d56" />
    <path d="M892.5,502.5a10.00094,10.00094,0,0,1-17.71,6.37l-.01-.01a9.99931,9.99931,0,1,1,17.43-8.73.00979.00979,0,0,0,.01.01A10.22724,10.22724,0,0,1,892.5,502.5Z" transform="translate(-198.5 -141.5)" fill="#6c63ff" />
</svg>
